<?xml version="1.0" encoding="UTF-8" standalone="no"?>
<svg
   xmlns:dc="http://purl.org/dc/elements/1.1/"
   xmlns:cc="http://creativecommons.org/ns#"
   xmlns:rdf="http://www.w3.org/1999/02/22-rdf-syntax-ns#"
   xmlns:svg="http://www.w3.org/2000/svg"
   xmlns="http://www.w3.org/2000/svg"
   xmlns:sodipodi="http://sodipodi.sourceforge.net/DTD/sodipodi-0.dtd"
   xmlns:inkscape="http://www.inkscape.org/namespaces/inkscape"
   inkscape:version="1.0beta2 (2b71d25, 2019-12-03)"
   sodipodi:docname="long_edited.svg"
   id="svg29"
   viewBox="0 0 121708.21 31749.97"
   style="clip-rule:evenodd;fill-rule:evenodd;image-rendering:optimizeQuality;shape-rendering:geometricPrecision;text-rendering:geometricPrecision"
   version="1.1"
   height="120"
   width="460"
   xml:space="preserve"><metadata
   id="metadata33"><rdf:RDF><cc:Work
       rdf:about=""><dc:format>image/svg+xml</dc:format><dc:type
         rdf:resource="http://purl.org/dc/dcmitype/StillImage" /><dc:title></dc:title></cc:Work></rdf:RDF></metadata><sodipodi:namedview
   inkscape:current-layer="svg29"
   inkscape:window-maximized="1"
   inkscape:window-y="23"
   inkscape:window-x="0"
   inkscape:cy="396.66709"
   inkscape:cx="396.66709"
   inkscape:zoom="0.83823441"
   units="px"
   showgrid="false"
   id="namedview31"
   inkscape:window-height="1330"
   inkscape:window-width="2560"
   inkscape:pageshadow="2"
   inkscape:pageopacity="0"
   guidetolerance="10"
   gridtolerance="10"
   objecttolerance="10"
   borderopacity="1"
   inkscape:document-rotation="0"
   bordercolor="#666666"
   pagecolor="#ffffff" />
 <defs
   id="defs12"><style
     id="style10"
     type="text/css">
   <![CDATA[
    .fil2 {fill:#BD3121}
    .fil1 {fill:#E23626}
    .fil3 {fill:#FEFEFE;fill-rule:nonzero}
    .fil0 {fill:#6B6B6B;fill-rule:nonzero}
   ]]>
  </style></defs>
 <g
   transform="translate(-44097.243,-87488.868)"
   id="Слой_x0020_1">
  <metadata
   id="CorelCorpID_0Corel-Layer" />
  <g
   id="_1596522140272">
   <path
   inkscape:connector-curvature="0"
   id="path15"
   d="m 79340.9,106126.8 v -1038.3 h 1028.4 v 1038.3 z m 2046.8,-1364.6 c 0,-369.1 102.2,-679 306.6,-929.5 204.3,-250.5 476.2,-430.1 815.7,-538.9 339.5,-108.8 654.3,-182.9 944.4,-222.5 290,-39.5 596.6,-59.3 919.6,-59.3 h 257.1 v -98.9 c 0,-731.7 -365.9,-1097.6 -1097.6,-1097.6 -481.3,0 -949.3,161.5 -1404.2,484.5 l -385.6,-702 c 204.4,-171.4 481.2,-313.2 830.6,-425.2 349.4,-112.1 695.5,-168.1 1038.3,-168.1 632.8,0 1120.7,168.1 1463.4,504.3 342.8,336.2 514.2,820.7 514.2,1453.5 v 3164.3 h -899.8 v -504.3 l 29.7,-395.5 h -19.8 c -151.6,296.6 -374.1,540.5 -667.5,731.7 -293.3,191.2 -618,286.8 -974,286.8 -454.8,0 -847.1,-135.2 -1176.7,-405.5 -329.6,-270.2 -494.4,-629.5 -494.4,-1077.8 z m 959.2,-79.1 c 0,217.6 82.4,405.4 247.2,563.6 164.8,158.3 395.5,237.4 692.2,237.4 395.5,0 718.5,-164.8 969,-494.5 250.5,-329.6 375.8,-695.4 375.8,-1097.6 v -187.8 h -247.2 c -1358,0 -2037,326.3 -2037,978.9 z m 4657.3,1443.7 v -5003.5 h 2066.7 c 514.2,0 921.2,110.4 1221.2,331.3 299.9,220.8 449.9,538.9 449.9,954.2 0,243.9 -62.6,463.1 -187.9,657.6 -125.2,194.4 -299.9,341.1 -524.1,440 v 9.9 c 303.3,72.5 537.3,217.5 702.1,435.1 164.8,217.5 247.2,468 247.2,751.5 0,454.8 -166.4,805.9 -499.3,1053.1 -332.9,247.2 -779.6,370.8 -1339.9,370.8 z m 959.2,-2887.4 h 939.4 c 283.4,0 497.7,-67.6 642.7,-202.7 145,-135.1 217.6,-321.4 217.6,-558.7 0,-461.4 -296.7,-692.2 -890,-692.2 h -909.7 z m 0,2215 h 1028.4 c 336.2,0 590,-69.2 761.4,-207.7 171.4,-138.4 257.1,-329.6 257.1,-573.5 0,-250.5 -89,-445 -267,-583.4 -178,-138.4 -431.8,-207.6 -761.4,-207.6 h -1018.5 z m 5329.8,672.4 V 101944 h -1740.3 v -820.7 h 4439.8 v 820.7 h -1750.2 v 4182.8 z m 3144.5,-2511.6 c 0,-744.9 260.4,-1366.3 781.2,-1864 520.8,-497.7 1156.9,-746.5 1908.4,-746.5 758.1,0 1397.6,247.2 1918.4,741.6 520.7,494.4 781.1,1117.4 781.1,1868.9 0,751.5 -260.4,1377.7 -781.1,1878.7 -520.8,501.1 -1157,751.6 -1908.5,751.6 -751.5,0 -1389.3,-250.5 -1913.4,-751.6 -524.1,-501 -786.1,-1127.2 -786.1,-1878.7 z m 979,0 c 0,520.8 166.4,950.9 499.3,1290.4 332.9,339.5 740,509.2 1221.2,509.2 474.7,0 880.1,-171.4 1216.3,-514.1 336.2,-342.8 504.3,-771.3 504.3,-1285.5 0,-514.2 -168.1,-939.4 -504.3,-1275.6 -336.2,-336.2 -741.6,-504.3 -1216.3,-504.3 -481.2,0 -888.3,168.1 -1221.2,504.3 -332.9,336.2 -499.3,761.4 -499.3,1275.6 z"
   class="fil0" />
   <polygon
   id="polygon17"
   points="106042.7,109569.3 106042.7,94884.9 106723.7,94884.9 106723.7,109569.3 "
   class="fil1" />
   <path
   inkscape:connector-curvature="0"
   id="path19"
   d="m 112149.4,94963.6 h 229.4 v 3276.8 h -229.4 v -878.2 c -131,288.4 -329.8,518.8 -596.4,691.4 -266.5,172.6 -565.8,258.9 -897.8,258.9 -471.9,0 -873.8,-164.9 -1205.9,-494.8 -332,-329.9 -498.1,-735.1 -498.1,-1215.7 0,-480.6 166.1,-885.9 498.1,-1215.7 332.1,-329.9 734,-494.8 1205.9,-494.8 332,0 631.3,86.2 897.8,258.8 266.6,172.6 465.4,403.1 596.4,691.4 z m -2539.5,2696.8 c 286.1,286.2 636.8,429.3 1051.8,429.3 415.1,0 766.8,-143.1 1055.2,-429.3 288.3,-286.2 432.5,-639 432.5,-1058.4 0,-419.5 -144.2,-772.3 -432.5,-1058.4 -288.4,-286.2 -640.1,-429.3 -1055.2,-429.3 -415,0 -765.7,143.1 -1051.8,429.3 -286.2,286.1 -429.3,638.9 -429.3,1058.4 0,419.4 143.1,772.2 429.3,1058.4 z m 5587,-2768.9 c 471.9,0 873.9,164.9 1205.9,494.8 332.1,329.8 498.1,735.1 498.1,1215.7 0,480.6 -166,885.8 -498.1,1215.7 -332,329.9 -734,494.8 -1205.9,494.8 -336.4,0 -635.7,-85.2 -897.8,-255.6 -262.2,-170.4 -461,-399.8 -596.4,-688.1 v 2182.3 h -235.9 v -4587.5 h 235.9 v 871.6 c 135.4,-288.4 334.2,-517.8 596.4,-688.1 262.1,-170.4 561.4,-255.6 897.8,-255.6 z m -1064.9,2768.9 c 286.1,286.2 636.8,429.3 1051.8,429.3 415.1,0 765.7,-143.1 1051.9,-429.3 286.2,-286.2 429.3,-639 429.3,-1058.4 0,-419.5 -143.1,-772.3 -429.3,-1058.4 -286.2,-286.2 -636.8,-429.3 -1051.9,-429.3 -415,0 -765.7,143.1 -1051.8,429.3 -286.2,286.1 -429.3,638.9 -429.3,1058.4 0,419.4 143.1,772.2 429.3,1058.4 z m 5049.6,-2768.9 c 480.6,0 870.6,170.4 1169.9,511.1 299.2,340.8 448.9,745 448.9,1212.5 0,52.4 -2.2,89.5 -6.6,111.4 h -3047.4 c 26.2,406.3 176.9,735.1 452.2,986.3 275.2,251.3 613.8,376.9 1015.8,376.9 275.2,0 518.8,-57.9 730.7,-173.7 211.9,-115.8 370.3,-269.8 475.2,-462 l 203.1,117.9 c -131,227.2 -320,407.4 -566.9,540.7 -246.8,133.3 -527.5,199.9 -842.1,199.9 -498.1,0 -906.6,-160.6 -1225.6,-481.7 -318.9,-321.1 -478.4,-730.7 -478.4,-1228.8 0,-485 157.3,-891.3 471.9,-1219 314.6,-327.7 714.3,-491.5 1199.3,-491.5 z m 0,222.8 c -401.9,0 -737.3,130 -1006,389.9 -268.7,260 -414,595.3 -435.8,1006 h 2824.6 c -30.5,-423.8 -175.8,-762.4 -435.8,-1015.8 -259.9,-253.4 -575.6,-380.1 -947,-380.1 z m 4895.6,-150.7 h 229.4 v 3276.8 h -229.4 v -1527 h -2202 v 1527 h -235.9 v -3276.8 h 235.9 v 1527 h 2202 z m 3938.8,3060.5 h 458.8 v 1094.5 h -229.4 v -878.2 h -2988.5 v 878.2 h -229.4 v -1094.5 h 360.5 c 249,-349.5 373.6,-814.8 373.6,-1395.9 v -1664.6 h 2254.4 z m -2339.6,0 h 2110.3 v -2844.3 h -1789.2 v 1448.4 c 0,563.6 -107,1028.9 -321.1,1395.9 z m 6416,-3060.5 h 229.4 v 3276.8 h -229.4 v -878.2 c -131,288.4 -329.8,518.8 -596.4,691.4 -266.5,172.6 -565.8,258.9 -897.8,258.9 -471.9,0 -873.8,-164.9 -1205.9,-494.8 -332,-329.9 -498.1,-735.1 -498.1,-1215.7 0,-480.6 166.1,-885.9 498.1,-1215.7 332.1,-329.9 734,-494.8 1205.9,-494.8 332,0 631.3,86.2 897.8,258.8 266.6,172.6 465.4,403.1 596.4,691.4 z m -2539.5,2696.8 c 286.1,286.2 636.8,429.3 1051.8,429.3 415.1,0 766.8,-143.1 1055.2,-429.3 288.3,-286.2 432.5,-639 432.5,-1058.4 0,-419.5 -144.2,-772.3 -432.5,-1058.4 -288.4,-286.2 -640.1,-429.3 -1055.2,-429.3 -415,0 -765.7,143.1 -1051.8,429.3 -286.2,286.1 -429.3,638.9 -429.3,1058.4 0,419.4 143.1,772.2 429.3,1058.4 z m -17403.5,2941 h 229.4 v 3276.8 h -229.4 v -878.2 c -131,288.4 -329.8,518.8 -596.4,691.4 -266.5,172.6 -565.8,258.9 -897.8,258.9 -471.9,0 -873.8,-164.9 -1205.9,-494.8 -332,-329.9 -498.1,-735.1 -498.1,-1215.7 0,-480.6 166.1,-885.9 498.1,-1215.7 332.1,-329.9 734,-494.8 1205.9,-494.8 332,0 631.3,86.2 897.8,258.8 266.6,172.6 465.4,403.1 596.4,691.4 z m -2539.5,2696.8 c 286.1,286.2 636.8,429.3 1051.8,429.3 415.1,0 766.8,-143.1 1055.2,-429.3 288.3,-286.2 432.5,-639 432.5,-1058.4 0,-419.5 -144.2,-772.3 -432.5,-1058.4 -288.4,-286.2 -640.1,-429.3 -1055.2,-429.3 -415,0 -765.7,143.1 -1051.8,429.3 -286.2,286.1 -429.3,638.9 -429.3,1058.4 0,419.4 143.1,772.2 429.3,1058.4 z m 5816.4,-1117.4 c 201,56.8 355,157.3 462,301.5 107.1,144.1 160.6,314.5 160.6,511.2 0,257.7 -85.2,469.6 -255.6,635.7 -170.4,166 -417.2,249 -740.5,249 h -1586 v -3276.8 h 1468 c 305.8,0 540.7,78.6 704.5,235.9 163.9,157.3 245.8,360.4 245.8,609.5 0,353.9 -152.9,598.5 -458.8,734 z m -491.5,-1363.2 h -1232.1 v 1278 h 1232.1 c 227.2,0 404.1,-56.8 530.8,-170.4 126.7,-113.6 190.1,-270.9 190.1,-471.9 0,-196.6 -63.4,-351.7 -190.1,-465.3 -126.7,-113.6 -303.6,-170.4 -530.8,-170.4 z m 118,2844.3 c 240.3,0 427,-60 560.3,-180.2 133.3,-120.1 199.9,-287.3 199.9,-501.4 0,-209.7 -66.6,-373.5 -199.9,-491.5 -133.3,-118 -320,-176.9 -560.3,-176.9 h -1350.1 v 1350 z m 3873.2,-3060.5 v 216.2 h -1212.4 v 3060.6 h -236 v -3060.6 h -1212.4 v -216.2 z m 1998.9,3348.9 c -476.2,0 -880.3,-164.9 -1212.4,-494.8 -332,-329.9 -498.1,-735.1 -498.1,-1215.7 0,-480.6 166.1,-885.9 498.1,-1215.7 332.1,-329.9 736.2,-494.8 1212.4,-494.8 480.6,0 887,164.9 1219,494.8 332.1,329.8 498.1,735.1 498.1,1215.7 0,480.6 -166,885.8 -498.1,1215.7 -332,329.9 -738.4,494.8 -1219,494.8 z m -1051.8,-652.1 c 286.1,286.2 636.8,429.3 1051.8,429.3 415.1,0 766.8,-143.1 1055.2,-429.3 288.3,-286.2 432.5,-639 432.5,-1058.4 0,-419.5 -144.2,-772.3 -432.5,-1058.4 -288.4,-286.2 -640.1,-429.3 -1055.2,-429.3 -415,0 -765.7,143.1 -1051.8,429.3 -286.2,286.1 -429.3,638.9 -429.3,1058.4 0,419.4 143.1,772.2 429.3,1058.4 z m 6747,-2696.8 v 3276.8 h -229.4 v -2955.7 l -1310.7,2025.1 h -45.9 l -1304.2,-2012 v 2942.6 h -235.9 v -3276.8 h 288.3 l 1278,1959.5 1278,-1959.5 z m 2562.4,3348.9 c -476.2,0 -880.3,-164.9 -1212.4,-494.8 -332,-329.9 -498.1,-735.1 -498.1,-1215.7 0,-480.6 166.1,-885.9 498.1,-1215.7 332.1,-329.9 736.2,-494.8 1212.4,-494.8 480.6,0 887,164.9 1219,494.8 332.1,329.8 498.1,735.1 498.1,1215.7 0,480.6 -166,885.8 -498.1,1215.7 -332,329.9 -738.4,494.8 -1219,494.8 z m -1051.8,-652.1 c 286.1,286.2 636.8,429.3 1051.8,429.3 415.1,0 766.8,-143.1 1055.2,-429.3 288.3,-286.2 432.5,-639 432.5,-1058.4 0,-419.5 -144.2,-772.3 -432.5,-1058.4 -288.4,-286.2 -640.1,-429.3 -1055.2,-429.3 -415,0 -765.7,143.1 -1051.8,429.3 -286.2,286.1 -429.3,638.9 -429.3,1058.4 0,419.4 143.1,772.2 429.3,1058.4 z m 5023.3,652.1 c -471.8,0 -862.9,-154 -1173.1,-462 -310.2,-308.1 -465.3,-713.3 -465.3,-1215.8 0,-537.4 77.6,-955.7 232.7,-1255 155.1,-299.3 475.1,-566.9 960.1,-802.8 113.6,-56.8 252.3,-119.1 416.2,-186.8 163.8,-67.7 292.7,-123.4 386.6,-167.1 94,-43.7 191.2,-96.1 291.7,-157.3 100.5,-61.2 178,-130 232.6,-206.4 54.6,-76.5 90.7,-167.2 108.2,-272 l 183.5,104.8 c -21.9,113.6 -63.4,215.2 -124.6,304.8 -61.1,89.5 -147.4,168.2 -258.8,235.9 -111.4,67.7 -215.2,124.5 -311.3,170.4 -96.2,45.9 -229.4,103.8 -399.8,173.7 -170.4,69.9 -305.8,128.9 -406.3,176.9 -345.2,166.1 -596.4,347.4 -753.7,544 -157.3,196.6 -255.6,465.3 -294.9,806.1 157.3,-275.3 365.9,-483.9 625.9,-625.9 259.9,-142 529.7,-213 809.3,-213 432.6,0 795.2,144.2 1087.9,432.6 292.8,288.3 439.1,653.1 439.1,1094.4 0,441.3 -148.5,805 -445.6,1091.2 -297.1,286.2 -677.2,429.3 -1140.4,429.3 z m 0,-222.8 c 397.6,0 723.1,-121.3 976.6,-363.8 253.4,-242.5 380.1,-553.8 380.1,-933.9 0,-380.1 -123.5,-693.6 -370.3,-940.4 -246.9,-246.9 -562.5,-370.3 -947,-370.3 -349.6,0 -663,112.5 -940.5,337.5 -277.4,225 -444.5,510.1 -501.3,855.3 0,415 131,754.7 393.2,1019.1 262.1,264.3 598.6,396.5 1009.2,396.5 z m 4830.1,-3126.1 h 209.7 v 3276.8 h -229.4 v -2883.6 l -2228.2,2883.6 h -209.7 v -3276.8 h 235.9 v 2883.6 z m 3945.4,0 v 3276.8 h -236 v -3060.6 h -1808.8 v 1710.5 c 0,956.9 -345.2,1406.9 -1035.5,1350.1 v -216.3 c 270.9,21.9 471.9,-55.7 603,-232.6 131,-177 196.6,-477.4 196.6,-901.2 v -1926.7 z m 2523.1,-72.1 c 480.6,0 870.6,170.4 1169.9,511.1 299.2,340.8 448.9,745 448.9,1212.5 0,52.4 -2.2,89.5 -6.6,111.4 h -3047.4 c 26.2,406.3 176.9,735.1 452.2,986.3 275.2,251.3 613.8,376.9 1015.8,376.9 275.2,0 518.8,-57.9 730.7,-173.7 211.9,-115.8 370.3,-269.8 475.2,-462 l 203.1,117.9 c -131,227.2 -320,407.4 -566.9,540.7 -246.8,133.3 -527.5,199.9 -842.1,199.9 -498.1,0 -906.6,-160.6 -1225.6,-481.7 -318.9,-321.1 -478.4,-730.7 -478.4,-1228.8 0,-485 157.3,-891.3 471.9,-1219 314.6,-327.7 714.3,-491.5 1199.3,-491.5 z m 0,222.8 c -401.9,0 -737.3,130 -1006,389.9 -268.7,260 -414,595.3 -435.8,1006 h 2824.6 c -30.5,-423.8 -175.8,-762.4 -435.8,-1015.8 -259.9,-253.4 -575.6,-380.1 -947,-380.1 z m 2988.5,-766.8 v -196.6 h 1618.8 v 196.6 z m 1926.8,616.1 h 209.7 v 3276.8 h -229.4 v -2883.6 l -2228.2,2883.6 h -209.7 v -3276.8 h 235.9 v 2883.6 z m -38706.2,8986.7 c -484.9,0 -891.3,-163.9 -1218.9,-491.5 -327.7,-327.7 -491.6,-734.1 -491.6,-1219 0,-485 163.9,-891.3 491.6,-1219 327.6,-327.7 734,-491.5 1218.9,-491.5 319,0 607.3,74.2 865.1,222.8 257.8,148.5 447.9,347.3 570.2,596.4 l -190.1,111.4 c -104.8,-214.1 -268.7,-385.6 -491.5,-514.5 -222.8,-128.9 -474,-193.3 -753.7,-193.3 -419.4,0 -771.1,143.1 -1055.1,429.3 -284,286.1 -426,638.9 -426,1058.4 0,419.4 142,772.2 426,1058.4 284,286.2 635.7,429.3 1055.1,429.3 279.7,0 529.8,-64.5 750.4,-193.4 220.7,-128.9 387.8,-300.3 501.4,-514.4 l 190.1,111.4 c -126.8,249 -319,447.8 -576.8,596.4 -257.8,148.5 -546.1,222.8 -865.1,222.8 z m 6783.1,-3348.9 v 3276.8 h -229.4 v -3060.6 h -2202 v 3060.6 h -235.9 v -3276.8 z m 2818.1,-72.1 c 471.9,0 873.9,164.9 1205.9,494.8 332.1,329.8 498.1,735.1 498.1,1215.7 0,480.6 -166,885.8 -498.1,1215.7 -332,329.9 -734,494.8 -1205.9,494.8 -336.4,0 -635.7,-85.2 -897.8,-255.6 -262.2,-170.4 -461,-399.8 -596.4,-688.1 v 2182.3 h -235.9 v -4587.5 h 235.9 v 871.6 c 135.4,-288.4 334.2,-517.8 596.4,-688.1 262.1,-170.4 561.4,-255.6 897.8,-255.6 z M 119198,108936 c 286.1,286.2 636.8,429.3 1051.8,429.3 415.1,0 765.7,-143.1 1051.9,-429.3 286.2,-286.2 429.3,-639 429.3,-1058.4 0,-419.5 -143.1,-772.3 -429.3,-1058.4 -286.2,-286.2 -636.8,-429.3 -1051.9,-429.3 -415,0 -765.7,143.1 -1051.8,429.3 -286.2,286.1 -429.3,638.9 -429.3,1058.4 0,419.4 143.1,772.2 429.3,1058.4 z m 6576.6,-2696.8 h 229.4 v 3276.8 h -229.4 v -878.2 c -131,288.4 -329.8,518.8 -596.4,691.4 -266.5,172.6 -565.8,258.9 -897.8,258.9 -471.9,0 -873.8,-164.9 -1205.9,-494.8 -332,-329.9 -498.1,-735.1 -498.1,-1215.7 0,-480.6 166.1,-885.9 498.1,-1215.7 332.1,-329.9 734,-494.8 1205.9,-494.8 332,0 631.3,86.2 897.8,258.8 266.6,172.6 465.4,403.1 596.4,691.4 z m -2539.5,2696.8 c 286.1,286.2 636.8,429.3 1051.8,429.3 415.1,0 766.8,-143.1 1055.2,-429.3 288.3,-286.2 432.5,-639 432.5,-1058.4 0,-419.5 -144.2,-772.3 -432.5,-1058.4 -288.4,-286.2 -640.1,-429.3 -1055.2,-429.3 -415,0 -765.7,143.1 -1051.8,429.3 -286.2,286.1 -429.3,638.9 -429.3,1058.4 0,419.4 143.1,772.2 429.3,1058.4 z m 5816.4,-1117.4 c 201,56.8 355,157.3 462,301.5 107.1,144.1 160.6,314.5 160.6,511.2 0,257.7 -85.2,469.6 -255.6,635.7 -170.4,166 -417.2,249 -740.5,249 h -1586 v -3276.8 h 1468 c 305.8,0 540.7,78.6 704.5,235.9 163.9,157.3 245.8,360.4 245.8,609.5 0,353.9 -152.9,598.5 -458.8,734 z m -491.5,-1363.2 h -1232.1 v 1278 h 1232.1 c 227.2,0 404.1,-56.8 530.8,-170.4 126.7,-113.6 190.1,-270.9 190.1,-471.9 0,-196.6 -63.4,-351.7 -190.1,-465.3 -126.7,-113.6 -303.6,-170.4 -530.8,-170.4 z m 118,2844.3 c 240.3,0 427,-60 560.3,-180.2 133.3,-120.1 199.9,-287.3 199.9,-501.4 0,-209.7 -66.6,-373.5 -199.9,-491.5 -133.3,-118 -320,-176.9 -560.3,-176.9 h -1350.1 v 1350 z m 3250.5,288.4 c -476.2,0 -880.3,-164.9 -1212.4,-494.8 -332,-329.9 -498.1,-735.1 -498.1,-1215.7 0,-480.6 166.1,-885.9 498.1,-1215.7 332.1,-329.9 736.2,-494.8 1212.4,-494.8 480.6,0 887,164.9 1219,494.8 332.1,329.8 498.1,735.1 498.1,1215.7 0,480.6 -166,885.8 -498.1,1215.7 -332,329.9 -738.4,494.8 -1219,494.8 z m -1051.8,-652.1 c 286.1,286.2 636.8,429.3 1051.8,429.3 415.1,0 766.8,-143.1 1055.2,-429.3 288.3,-286.2 432.5,-639 432.5,-1058.4 0,-419.5 -144.2,-772.3 -432.5,-1058.4 -288.4,-286.2 -640.1,-429.3 -1055.2,-429.3 -415,0 -765.7,143.1 -1051.8,429.3 -286.2,286.1 -429.3,638.9 -429.3,1058.4 0,419.4 143.1,772.2 429.3,1058.4 z m 6747,-2696.8 v 3276.8 h -229.4 v -2955.7 l -1310.7,2025.1 h -45.9 l -1304.2,-2012 v 2942.6 h -235.9 v -3276.8 h 288.3 l 1278,1959.5 1278,-1959.5 z m 4902.1,1579.4 c 201,56.8 355,157.3 462,301.5 107.1,144.1 160.6,314.5 160.6,511.2 0,257.7 -85.2,469.6 -255.6,635.7 -170.4,166 -417.2,249 -740.5,249 h -1586 v -3276.8 h 1468 c 305.8,0 540.7,78.6 704.5,235.9 163.9,157.3 245.8,360.4 245.8,609.5 0,353.9 -152.9,598.5 -458.8,734 z m -491.5,-1363.2 h -1232.1 v 1278 h 1232.1 c 227.2,0 404.1,-56.8 530.8,-170.4 126.7,-113.6 190.1,-270.9 190.1,-471.9 0,-196.6 -63.4,-351.7 -190.1,-465.3 -126.7,-113.6 -303.6,-170.4 -530.8,-170.4 z m 118,2844.3 c 240.3,0 427,-60 560.3,-180.2 133.3,-120.1 199.9,-287.3 199.9,-501.4 0,-209.7 -66.6,-373.5 -199.9,-491.5 -133.3,-118 -320,-176.9 -560.3,-176.9 h -1350.1 v 1350 z m 3040.8,-1762.9 c 297.1,0 550.5,90.6 760.3,272 209.7,181.3 314.5,418.3 314.5,711 0,292.8 -104.8,532 -314.5,717.7 -209.8,185.7 -463.2,278.5 -760.3,278.5 h -1264.8 v -3276.8 h 235.9 v 1297.6 z m 1618.8,-1297.6 h 235.9 v 3276.8 h -235.9 z m -1618.8,3060.5 c 240.3,0 441.3,-73.2 603,-219.5 161.6,-146.4 242.4,-333.2 242.4,-560.4 0,-222.8 -80.8,-406.3 -242.4,-550.5 -161.7,-144.2 -362.7,-216.2 -603,-216.2 h -1028.9 v 1546.6 z m 5315.1,216.3 h -314.6 l -1821.9,-1631.9 v 1631.9 h -235.9 v -3276.8 h 235.9 v 1507.3 l 1756.4,-1507.3 h 314.6 l -1828.5,1572.8 z m 3040.9,-3276.8 h 236 l -1422.2,3578.3 c -131.1,323.3 -310.2,577.8 -537.4,763.5 -227.2,185.7 -474,267.6 -740.6,245.7 v -216.2 c 218.5,21.8 420.6,-43.7 606.3,-196.6 185.7,-153 335.3,-369.2 448.9,-648.9 l 65.5,-144.1 -1540.1,-3381.7 h 235.9 l 1415.6,3099.9 z m 3558.7,0 v 3276.8 h -229.4 v -3060.6 h -2202 v 3060.6 h -235.9 v -3276.8 z m 4050.2,0 h 229.4 v 3276.8 h -229.4 v -878.2 c -131,288.4 -329.8,518.8 -596.4,691.4 -266.5,172.6 -565.8,258.9 -897.8,258.9 -471.9,0 -873.8,-164.9 -1205.9,-494.8 -332,-329.9 -498.1,-735.1 -498.1,-1215.7 0,-480.6 166.1,-885.9 498.1,-1215.7 332.1,-329.9 734,-494.8 1205.9,-494.8 332,0 631.3,86.2 897.8,258.8 266.6,172.6 465.4,403.1 596.4,691.4 z m -2539.5,2696.8 c 286.1,286.2 636.8,429.3 1051.8,429.3 415.1,0 766.8,-143.1 1055.2,-429.3 288.3,-286.2 432.5,-639 432.5,-1058.4 0,-419.5 -144.2,-772.3 -432.5,-1058.4 -288.4,-286.2 -640.1,-429.3 -1055.2,-429.3 -415,0 -765.7,143.1 -1051.8,429.3 -286.2,286.1 -429.3,638.9 -429.3,1058.4 0,419.4 143.1,772.2 429.3,1058.4 z"
   class="fil0" />
   <polygon
   id="polygon21"
   points="58762.8,108996.4 51820.3,115017.8 52372.2,108996.4 "
   class="fil2" />
   <path
   inkscape:connector-curvature="0"
   id="path23"
   d="m 52303.6,94884.9 h 19926.5 c 2083.5,0 3788.3,1704.7 3788.3,3788.2 v 7108 c 0,2083.6 -1704.8,3788.3 -3788.3,3788.3 H 52303.6 c -2083.7,0 -3788.3,-1704.7 -3788.3,-3788.3 v -7108 c 0,-2083.5 1704.6,-3788.2 3788.3,-3788.2 z"
   class="fil1" />
   <path
   inkscape:connector-curvature="0"
   id="path25"
   d="m 58927.6,106245.5 c -1011.5,0 -1851,-304.5 -2518.4,-913.4 -667.5,-609 -1063.1,-1395.1 -1187,-2358.5 h -1114.7 v 3075.8 h -1764.9 v -7307.6 h 1764.9 v 2786.8 h 1156 c 172,-887.6 583.2,-1606.7 1233.4,-2157.1 650.3,-550.5 1460.5,-825.8 2430.7,-825.8 1121.6,0 2026.5,361.3 2714.5,1083.8 688.1,722.5 1032.2,1637.7 1032.2,2745.5 0,1107.8 -345.8,2029.9 -1037.3,2766.1 -691.6,736.3 -1594.7,1104.4 -2709.4,1104.4 z m 0,-1610.1 c 571.1,0 1023.6,-216.8 1357.3,-650.3 333.7,-433.5 500.6,-970.2 500.6,-1610.1 0,-639.9 -166.9,-1173.2 -500.6,-1599.8 -333.7,-426.7 -786.2,-640 -1357.3,-640 -578,0 -1033.8,213.3 -1367.6,640 -333.7,426.6 -500.6,959.9 -500.6,1599.8 0,646.8 166.9,1185.2 500.6,1615.3 333.8,430 789.6,645.1 1367.6,645.1 z m 4913,1414 v -7307.6 h 2508.1 l 1661.7,4686 h 41.3 l 1589.5,-4686 h 2549.4 v 7307.6 h -1723.7 l 41.3,-5171 h -31 l -1899.1,5171 h -1238.6 l -1847.5,-5171 h -31 l 41.3,5171 z"
   class="fil3" />
  </g>
 </g>
</svg>
